<svg xmlns:rdf="http://www.w3.org/1999/02/22-rdf-syntax-ns#" xmlns="http://www.w3.org/2000/svg" xml:space="preserve" height="101" width="1.08e3" version="1.1" y="0px" x="0px" xmlns:cc="http://creativecommons.org/ns#" xmlns:dc="http://purl.org/dc/elements/1.1/" viewBox="0 0 1079.4 101"><style type="text/css">
	.st0{fill:none;}
	.st1{fill:#37003C;}
</style><g id="Safe_Area" fill="none" transform="translate(-76.3,-76.3)"><polygon points="1.19e3 163 1.19e3 133 1.16e3 133 1.16e3 119 1.23e3 119 1.23e3 167 1.22e3 167 1.22e3 133 1.2e3 133 1.2e3 163" class="st0"/><polygon points="3.09e3 160 3.09e3 129 3.05e3 129 3.05e3 116 3.13e3 116 3.13e3 164 3.12e3 164 3.12e3 129 3.1e3 129 3.1e3 160" class="st0"/><polygon points="2.52e3 -42.3 2.49e3 -42.3 2.49e3 -7.5 2.48e3 -7.5 2.48e3 -83.8 2.52e3 -83.8 2.52e3 -71.1 2.49e3 -71.1 2.49e3 -55 2.52e3 -55" class="st0"/><polygon points="2.52e3 303 2.49e3 303 2.49e3 337 2.48e3 337 2.48e3 261 2.52e3 261 2.52e3 274 2.49e3 274 2.49e3 290 2.52e3 290" class="st0"/><polygon points="2.34e3 160 2.34e3 129 2.31e3 129 2.31e3 116 2.39e3 116 2.39e3 164 2.37e3 164 2.37e3 129 2.36e3 129 2.36e3 160" class="st0"/><polygon points="34.8 138 34.8 107 0 107 0 93.6 76.3 93.6 76.3 142 63.6 142 63.6 107 47.5 107 47.5 138" class="st0"/><polygon points="464 34.8 494 34.8 494 0 508 0 508 76.3 460 76.3 460 63.6 494 63.6 494 47.5 464 47.5" class="st0"/><polygon points="979 212 1.01e3 212 1.01e3 177 1.02e3 177 1.02e3 254 975 254 975 241 1.01e3 241 1.01e3 225 979 225" class="st0"/></g><g id="Logo" transform="translate(-76.3,-76.3)"><g fill="#37003c"><path class="st1" d="m463 153v-76.3h24.2c15.7 0 27.6 9.4 27.6 25.5 0 16.3-11.6 25.9-27.6 25.9h-9.4v24.9h-14.8zm14.8-39.2h8.6c7.5 0 12.9-4.1 12.9-11.6s-5.4-11.4-12.9-11.4h-8.6v23zm210-11.1h13.9v50.2h-13.9v-50.2zm7.1-6.7c-4.9 0-8.6-3.7-8.6-8.4 0-4.9 3.7-8.6 8.6-8.6s8.6 3.7 8.6 8.6c0 4.6-3.7 8.4-8.6 8.4m-27.9 57h13.9v-32.1c0-11.4-7.3-19.5-18-19.5-3.7 0-9.7 0.6-14.6 7.5l-0.4 0.6-0.4-0.6c-3.4-5.1-8.2-7.5-14.1-7.5-9.4 0-12.4 7.9-12.4 7.9l-1.5-6.6h-12.2v50.2h13.9v-29.4c0-5.6 2.8-9 8.2-9 4.7 0 7.7 3.4 7.7 8.8v29.6h13.9v-29.4c0-5.6 2.8-9 8.2-9 4.7 0 7.7 3.4 7.7 8.8v29.7zm111 0v-25.3c0-8.1 4.7-12.2 11.4-12.2 1.7 0 3.2 0.2 4.9 0.6v-13.3c-1.3-0.4-2.6-0.6-3.9-0.6-6 0-10.5 3.2-12.7 7.9l-1.5-7.3h-12v50.2h13.8zm-244 0v-25.3c0-8.1 4.7-12.2 11.4-12.2 1.7 0 3.2 0.2 4.9 0.6v-13.3c-1.3-0.4-2.6-0.6-3.9-0.6-6 0-10.5 3.2-12.7 7.9l-1.5-7.3h-12v50.2h13.8zm201 1.3c-15.6 0-27-10.7-27-26.2 0-14.1 10.3-26.6 26.6-26.6 12.2 0 24.7 9.2 24.7 26.2 0 1.3 0 3-0.4 4.9h-36.7c1.3 5.6 6.4 9.4 12.6 9.4 5.6 0 9.9-2.1 13.5-5.8l8.4 8.6c-5.4 6.1-13.3 9.5-21.7 9.5m-0.8-40.7c-5.8 0-10.7 3.4-11.8 8.8h23.2c-1-5.2-5.7-8.8-11.4-8.8m-156 40.7c-15.6 0-27-10.7-27-26.2 0-14.1 10.3-26.6 26.6-26.6 12.2 0 24.7 9.2 24.7 26.2 0 1.3 0 3-0.4 4.9h-36.7c1.3 5.6 6.4 9.4 12.6 9.4 5.6 0 9.9-2.1 13.5-5.8l8.4 8.6c-5.4 6.1-13.3 9.5-21.7 9.5m-0.8-40.7c-5.8 0-10.7 3.4-11.8 8.8h23.2c-1.1-5.2-5.7-8.8-11.4-8.8m498 40.7c10.9 0 24.6-6 24.6-24.7v-26.8h-13.9v25.9c0 8.1-4.5 12.4-10.7 12.4-6.7 0-10.7-3.7-10.7-12.4v-25.9h-13.9v26.8c0 18.7 13.5 24.7 24.6 24.7m-119 0c-13.3 0-24.9-12.2-24.9-26.4 0-14.1 11.6-25.9 24.9-25.9 7.5 0 12.6 2.6 15.6 7.3l1.5-6.6h12.2v50.2h-12.2l-1.5-6.4c-3.1 4.6-8.7 7.8-15.6 7.8m2.8-39.8c-7.5 0-13.1 5.6-13.1 13.3 0 7.3 5.6 13.1 13.1 13.1 7.3 0 12.9-5.8 12.9-13.1 0-7.6-5.6-13.3-12.9-13.3m-86.8 38.5v-14.1h-32.2v-62.2h-14.8v76.3h47zm30 1.3c-15.6 0-27-10.7-27-26.2 0-14.1 10.3-26.6 26.6-26.6 12.2 0 24.7 9.2 24.7 26.2 0 1.3 0 3-0.4 4.9h-36.7c1.3 5.6 6.4 9.4 12.6 9.4 5.6 0 9.9-2.1 13.5-5.8l8.4 8.6c-5.4 6.1-13.3 9.5-21.7 9.5m-0.8-40.7c-5.8 0-10.7 3.4-11.8 8.8h23.2c-1.1-5.2-5.7-8.8-11.4-8.8m231 40.7c-15.6 0-27-10.7-27-26.2 0-14.1 10.3-26.6 26.6-26.6 12.2 0 24.7 9.2 24.7 26.2 0 1.3 0 3-0.4 4.9h-36.7c1.3 5.6 6.4 9.4 12.6 9.4 5.6 0 9.9-2.1 13.5-5.8l8.4 8.6c-5.4 6.1-13.3 9.5-21.7 9.5m-0.8-40.7c-5.8 0-10.7 3.4-11.8 8.8h23.2c-1.1-5.2-5.7-8.8-11.4-8.8m-113 0.9c-7.3 0-13.1 5.6-13.1 13.3 0 7.3 5.8 13.1 13.1 13.1s13.1-5.8 13.1-13.1c0-7.6-5.8-13.3-13.1-13.3m12.4-5.4 1.5-6.4h12.2v48c0 9.4-2.6 15.9-8.8 20.8-4.7 3.6-11.1 6.2-18.7 6.2-10.5 0-18-3.6-24-9.4l7.7-10.7c3.7 3.6 8.8 6.7 15.4 6.7 10.3 0 14.8-5.1 14.8-12.6v-3.6c-4.1 4.3-9 6-14.4 6-14.2 0-25.5-11.6-25.5-26.4 0-14.6 11.6-25.9 25.9-25.9 5.6 0.2 10.9 3 13.9 7.3"/><path class="st1" d="m235 124v28.6h-13.1v-27.2c0-7.8-3.6-11.7-9.8-11.7-6.9 0-11.8 5-11.8 15.6v23.3h-13.1v-50.3h11.7l1.3 5.9c3.5-4.4 8.5-6.7 14.6-6.7 12.4 0 20.2 8.7 20.2 22.5z"/><path class="st1" d="m278 150c-4 2.2-9 3.6-14.2 3.6-11.2 0-18-6.4-18-16.9v-22.6h-8v-11.6h8l2-14.5h11.1v14.5h17.7v11.6h-17.7v20.7c0 4.3 2.1 6.5 6.5 6.5 2.6 0 5.6-0.9 8.4-2.3l4.2 11z"/><path class="st1" d="m332 103v50.3h-11.7l-1.2-5.4c-3.8 3.8-9.4 6.2-15.7 6.2-14.1 0-24.2-10.7-24.2-25.8v-0.4c0-15.1 10.1-25.8 24.2-25.8 6.3 0 11.9 2.4 15.7 6.2l1.2-5.4h11.7zm-13.1 25.6v-1c0-8.6-6.4-13.4-13.4-13.4-7.7 0-13.2 6-13.2 13.7v0.4c0 7.7 5.5 13.7 13.2 13.7 7 0 13.4-4.8 13.4-13.4z"/><path class="st1" d="m343 138c3.5 2.8 8.1 4.5 12.7 4.5 4.2 0 6.7-1.3 6.7-3.7 0-7.4-24-4.3-24-21.7 0-9.2 7.5-15.4 18.8-15.4 6.5 0 12.7 2 17.7 5.7l-6.3 9.8c-3.5-2.8-7.5-4.4-11.6-4.4-3.7 0-5.5 1.4-5.5 3.3 0 6.9 24 3.8 24 21.7 0 9.4-8.1 15.8-20.1 15.8-6.8 0-13.3-1.8-18.2-5l5.8-10.6z"/><path class="st1" d="m435 103-21 54.1c-5.3 13.7-13 18.1-24.3 18.1-1.9 0-3.9-0.2-5.4-0.7l1.7-13c1 0.2 2 0.3 3.3 0.3 5.6 0 9.2-1.5 11.4-6.8l-22.6-51.9h14.6l15.1 35.4 12.9-35.4h14.3z"/><path class="st1" d="m150 154c-13.3 0-24.9-12.2-24.9-26.4 0-14.1 11.6-25.9 24.9-25.9 7.5 0 12.6 2.6 15.6 7.3l1.5-6.6h12.2v50.2h-12.2l-1.5-6.4c-3 4.6-8.6 7.8-15.6 7.8m2.8-39.7c-7.5 0-13.1 5.6-13.1 13.3 0 7.3 5.6 13.1 13.1 13.1 7.3 0 12.9-5.8 12.9-13.1 0.1-7.7-5.5-13.3-12.9-13.3"/><path class="st1" d="m89.9 89.3v16.1h30.7v12.7h-30.7v34.8h-13.6v-76.3h48v12.7h-34.4z"/></g></g></svg>
